<?xml version="1.0" encoding="utf-8"?>
<!-- Generator: Adobe Illustrator 23.1.0, SVG Export Plug-In . SVG Version: 6.00 Build 0)  -->
<svg version="1.1" id="Layer_1" xmlns="http://www.w3.org/2000/svg" xmlns:xlink="http://www.w3.org/1999/xlink" x="0px" y="0px"
	 viewBox="0 0 451.7 452.9" style="enable-background:new 0 0 451.7 452.9;" xml:space="preserve">
<style type="text/css">
	.st0{fill:none;stroke:#FAA71A;stroke-width:2;stroke-miterlimit:10;}
	.st1{fill:#FF8100;stroke:#FFFFFF;stroke-width:4;stroke-miterlimit:10;}
	.st2{fill:#CF7128;stroke:#FFFFFF;stroke-width:4;stroke-miterlimit:10;}
	.st3{fill:#D38929;stroke:#FFFFFF;stroke-width:4;stroke-miterlimit:10;}
	.st4{fill:#D8D4C0;}
	.st5{stroke:#FFFFFF;stroke-width:2;stroke-miterlimit:10;}
</style>
<title>Asset 1</title>
<g>
	<g id="Pencil_body">
		<path class="st0" d="M421.4,8.9L445,32.6c5.5,5.5,5.5,14.5,0,20l-13.8,13.8l-46-46l11.5-11.5C403.6,2.1,414.6,2.1,421.4,8.9z"/>
		
			<rect x="-25" y="213.9" transform="matrix(0.7071 -0.7071 0.7071 0.7071 -92.3703 226.3184)" class="st1" width="504" height="21.6"/>
		
			<rect x="-9.4" y="229.4" transform="matrix(0.7071 -0.7071 0.7071 0.7071 -98.8079 241.8729)" class="st2" width="504" height="21.6"/>
		
			<rect x="-40.3" y="198.1" transform="matrix(0.7071 -0.7071 0.7071 0.7071 -85.6639 210.8896)" class="st3" width="504" height="21.6"/>
		<polygon class="st4" points="15.7,416.4 27,384.2 47.8,405.1 68.7,425.9 36.5,437.1 4.3,448.6 		"/>
		<polygon class="st5" points="4.2,441.6 8,430.7 15.1,437.8 22.2,444.9 11.2,448.7 0.3,452.6 		"/>
	</g>
</g>
</svg>
